<?xml version="1.0" standalone="no"?>
<!DOCTYPE svg PUBLIC "-//W3C//DTD SVG 20010904//EN"
 "http://www.w3.org/TR/2001/REC-SVG-20010904/DTD/svg10.dtd">
<svg version="1.0" xmlns="http://www.w3.org/2000/svg"
 width="4626.000000pt" height="4619.000000pt" viewBox="0 0 4626.000000 4619.000000"
 preserveAspectRatio="xMidYMid meet">

<g transform="translate(0.000000,4619.000000) scale(0.100000,-0.100000)"
fill="#000000" stroke="none">
<path d="M23030 46179 c-1129 -40 -2238 -155 -3418 -354 -2794 -474 -5210
-1310 -7591 -2628 -2038 -1127 -4000 -2644 -5645 -4362 -2400 -2508 -4174
-5430 -5245 -8641 -541 -1625 -910 -3364 -1055 -4984 -96 -1066 -102 -2751
-15 -4015 123 -1791 451 -3404 992 -4885 41 -113 93 -275 115 -360 88 -337
346 -1128 487 -1495 345 -896 792 -1779 1473 -2910 410 -679 1182 -1897 1295
-2040 39 -49 145 -187 236 -305 480 -626 1001 -1243 1780 -2110 1065 -1185
2755 -2511 4596 -3609 143 -85 476 -284 740 -442 546 -326 704 -417 930 -534
391 -204 1076 -500 2110 -915 264 -105 633 -254 820 -330 359 -146 525 -205
832 -294 1406 -410 2955 -705 4093 -781 523 -34 856 -72 1120 -126 52 -11 164
-24 248 -29 136 -9 168 -8 275 10 325 53 655 53 1147 0 192 -21 349 -32 450
-33 476 -2 2945 268 3690 404 342 62 470 97 1512 410 749 225 1252 359 1683
449 114 24 239 57 290 77 154 60 368 167 425 214 203 166 422 265 1005 455
890 289 1259 467 1591 765 56 50 114 87 270 168 546 286 1249 692 1683 973
463 300 706 487 1261 971 329 288 481 425 1610 1463 499 458 762 728 961 984
36 47 127 177 201 290 236 356 437 631 1179 1610 407 537 867 1173 1042 1441
41 63 127 211 192 329 285 520 595 1049 1120 1910 603 988 771 1284 1039 1830
l135 275 -16 255 -16 256 86 249 c48 138 123 365 167 505 44 140 83 262 86
270 11 30 -10 -3 -154 -256 -165 -288 -305 -524 -309 -520 -2 1 26 83 61 182
35 98 108 313 162 477 l97 298 -23 67 c-20 58 -24 91 -27 247 -8 303 22 530
223 1684 243 1397 290 1713 348 2361 46 500 72 943 83 1399 6 272 6 281 -13
281 -10 0 -24 -4 -30 -8 -7 -4 -22 -132 -38 -322 -40 -475 -132 -1257 -135
-1150 0 19 8 217 19 440 51 1068 51 1326 -1 1488 -13 39 -27 37 -53 -8 -32
-54 -54 -152 -75 -329 -11 -91 -32 -263 -46 -381 -64 -525 -223 -1357 -394
-2060 -66 -273 -63 -266 -85 -193 -17 56 -17 67 -2 204 39 346 96 1082 96
1229 0 47 -4 60 -25 80 -17 16 -25 19 -25 9 0 -8 -9 -72 -19 -144 -27 -179
-79 -413 -161 -720 -143 -535 -203 -863 -245 -1330 -28 -314 -88 -512 -258
-849 -264 -526 -525 -898 -692 -988 -49 -26 -125 -47 -125 -34 0 4 30 118 66
254 371 1392 577 2728 666 4307 18 313 18 1646 0 1965 -46 839 -109 1448 -228
2224 l-36 230 27 104 c56 226 130 326 218 293 74 -28 151 -129 249 -326 114
-226 215 -506 354 -980 86 -293 184 -534 241 -587 40 -38 73 -44 105 -18 35
27 81 122 111 227 13 46 26 85 29 88 3 3 40 -101 83 -232 177 -547 199 -611
231 -675 38 -75 64 -98 112 -98 64 0 118 46 239 206 110 145 226 224 327 224
95 0 131 -40 242 -263 32 -64 62 -117 66 -117 8 0 2 444 -13 840 -21 609 -72
1001 -218 1700 -38 184 -102 488 -141 675 -266 1277 -474 2050 -812 3020 -487
1395 -1160 2830 -1946 4150 -1576 2645 -3640 4952 -6062 6777 -2388 1798
-5139 3131 -7925 3838 -1484 377 -2970 584 -4580 640 -330 11 -1189 11 -1525
-1z"/>
</g>
</svg>
